<?xml version="1.0" encoding="utf-8"?>
<!-- Generator: Adobe Illustrator 16.0.0, SVG Export Plug-In . SVG Version: 6.00 Build 0)  -->
<!DOCTYPE svg PUBLIC "-//W3C//DTD SVG 1.1//EN" "http://www.w3.org/Graphics/SVG/1.1/DTD/svg11.dtd">
<svg version="1.1" id="Capa_1" xmlns="http://www.w3.org/2000/svg" xmlns:xlink="http://www.w3.org/1999/xlink" x="0px" y="0px"
	 width="34px" height="34px" viewBox="0 0 34 34" enable-background="new 0 0 34 34" xml:space="preserve">
<rect fill="#A19892" width="34" height="34"/>
<g>
	<g opacity="0.2">
		<image overflow="visible" width="97" height="97" xlink:href="71385BD6589FEC41.png"  transform="matrix(1 0 0 1 -31 -31.4658)">
		</image>
	</g>
	<path fill="#FF5000" d="M20.454,21.296c-0.006-0.004-0.008-0.01-0.014-0.014l0.002-0.002l-4.087-4.34l4.074-4.33v-0.002
		c0.002-0.002,0.004-0.004,0.008-0.006c0.67-0.67,0.67-1.752,0-2.42c-0.668-0.67-1.752-0.67-2.421,0
		C18,10.2,17.98,10.218,17.964,10.237l-6.708,6.707l0.012,0.004l6.712,6.713c0.018,0.018,0.036,0.037,0.055,0.056
		c0.667,0.668,1.751,0.668,2.419,0C21.122,23.048,21.122,21.966,20.454,21.296z"/>
</g>
</svg>
