<?xml version="1.0" encoding="utf-8"?>
<!-- Generator: Adobe Illustrator 16.0.0, SVG Export Plug-In . SVG Version: 6.00 Build 0)  -->
<!DOCTYPE svg PUBLIC "-//W3C//DTD SVG 1.1//EN" "http://www.w3.org/Graphics/SVG/1.1/DTD/svg11.dtd">
<svg version="1.1" id="Capa_1" xmlns="http://www.w3.org/2000/svg" xmlns:xlink="http://www.w3.org/1999/xlink" x="0px" y="0px"
	 width="34px" height="34px" viewBox="0 0 34 34" enable-background="new 0 0 34 34" xml:space="preserve">
<rect x="-1.157" y="-1.157" fill="#A19892" width="36.314" height="36.314"/>
<g>
	<g opacity="0.2">
		<image overflow="visible" width="97" height="97" xlink:href="93FFAA669A8D132C.png"  transform="matrix(1 0 0 1 -32 -31.4658)">
		</image>
	</g>
	<path fill="#FF5000" d="M13.546,12.704c0.006,0.004,0.008,0.01,0.014,0.014l-0.002,0.002l4.087,4.34l-4.074,4.33v0.002
		c-0.002,0.002-0.004,0.004-0.008,0.006c-0.67,0.67-0.67,1.752,0,2.42c0.668,0.67,1.752,0.67,2.421,0
		C16,23.8,16.02,23.782,16.036,23.763l6.708-6.707l-0.012-0.004l-6.712-6.713c-0.018-0.018-0.036-0.037-0.055-0.056
		c-0.667-0.668-1.751-0.668-2.419,0C12.878,10.952,12.878,12.034,13.546,12.704z"/>
</g>
</svg>
