<?xml version="1.0" encoding="utf-8"?>
<!-- Generator: Adobe Illustrator 16.0.0, SVG Export Plug-In . SVG Version: 6.00 Build 0)  -->
<!DOCTYPE svg PUBLIC "-//W3C//DTD SVG 1.1//EN" "http://www.w3.org/Graphics/SVG/1.1/DTD/svg11.dtd">
<svg version="1.1" id="Capa_1" xmlns="http://www.w3.org/2000/svg" xmlns:xlink="http://www.w3.org/1999/xlink" x="0px" y="0px"
	 width="32px" height="32px" viewBox="0 0 32 32" enable-background="new 0 0 32 32" xml:space="preserve">
<g>
	<rect y="0.095" width="31.894" height="31.894"/>
	<g opacity="0.6">
		<path fill="#FF5000" d="M24.68,16.895c0,2.297-0.885,4.449-2.512,6.075c-1.625,1.649-3.802,2.534-6.097,2.534
			c-2.297,0-4.472-0.885-6.099-2.534c-1.625-1.626-2.511-3.778-2.511-6.075c0-2.319,0.886-4.471,2.511-6.098
			c1.627-1.625,3.802-2.535,6.099-2.535c2.295,0,4.472,0.91,6.097,2.535C23.795,12.424,24.68,14.575,24.68,16.895z M23.055,16.895
			c0-3.873-3.134-7.006-6.983-7.006c-3.851,0-6.982,3.133-6.982,7.006c0,3.852,3.132,6.982,6.982,6.982
			C19.921,23.877,23.055,20.746,23.055,16.895z M14.541,14.575v4.616c0,0.838,0.692,1.529,1.53,1.529
			c0.788,0,1.458-0.597,1.53-1.362c0.048-0.454,0.454-0.788,0.908-0.742c0.431,0.048,0.765,0.454,0.719,0.886
			c-0.144,1.555-1.507,2.846-3.157,2.846c-1.745,0-3.157-1.411-3.157-3.156v-4.616c0-1.745,1.412-3.157,3.157-3.157
			c1.553,0,3.014,1.197,3.157,2.847c0.046,0.454-0.288,0.836-0.719,0.886c-0.454,0.047-0.86-0.264-0.908-0.718
			c-0.072-0.79-0.742-1.388-1.53-1.388C15.233,13.045,14.541,13.738,14.541,14.575z"/>
	</g>
</g>
</svg>
