<?xml version="1.0" encoding="utf-8"?>
<!-- Generator: Adobe Illustrator 16.0.0, SVG Export Plug-In . SVG Version: 6.00 Build 0)  -->
<!DOCTYPE svg PUBLIC "-//W3C//DTD SVG 1.1//EN" "http://www.w3.org/Graphics/SVG/1.1/DTD/svg11.dtd">
<svg version="1.1" id="Capa_1" xmlns="http://www.w3.org/2000/svg" xmlns:xlink="http://www.w3.org/1999/xlink" x="0px" y="0px"
	 width="32px" height="32px" viewBox="0 0 32 32" enable-background="new 0 0 32 32" xml:space="preserve">
<g>
	<rect y="0.083" width="31.895" height="31.894"/>
	<g>
		<path fill="#FF5000" d="M10.131,12.057c-0.898,0-1.65-0.753-1.65-1.652c0-0.897,0.752-1.651,1.65-1.651
			c0.899,0,1.65,0.754,1.65,1.651C11.781,11.304,11.03,12.057,10.131,12.057z M8.688,23.923V12.954h2.885v10.969H8.688z"/>
		<path fill="#FF5000" d="M20.527,23.923v-5.934c0-1.965-0.667-2.55-1.858-2.55c-1.189,0-1.881,0.585-1.881,2.487v5.996h-2.883
			V12.954h2.883v0.732c0.502-0.524,1.421-0.963,2.57-0.963c2.8,0,4.053,1.922,4.053,5.014v6.186H20.527z"/>
	</g>
</g>
</svg>
