<?xml version="1.0" encoding="utf-8"?>
<!-- Generator: Adobe Illustrator 16.0.0, SVG Export Plug-In . SVG Version: 6.00 Build 0)  -->
<!DOCTYPE svg PUBLIC "-//W3C//DTD SVG 1.1//EN" "http://www.w3.org/Graphics/SVG/1.1/DTD/svg11.dtd">
<svg version="1.1" id="Capa_1" xmlns="http://www.w3.org/2000/svg" xmlns:xlink="http://www.w3.org/1999/xlink" x="0px" y="0px"
	 width="32px" height="32px" viewBox="0 0 32 32" enable-background="new 0 0 32 32" xml:space="preserve">
<g>
	<rect x="0.106" y="0.106" width="31.894" height="31.894"/>
	<g>
		<path fill="#FF5000" d="M24.786,16.907c0,2.297-0.885,4.448-2.512,6.074c-1.625,1.649-3.802,2.535-6.097,2.535
			c-2.297,0-4.472-0.886-6.099-2.535c-1.625-1.626-2.511-3.777-2.511-6.074c0-2.32,0.886-4.473,2.511-6.099
			c1.627-1.625,3.802-2.534,6.099-2.534c2.295,0,4.472,0.909,6.097,2.534C23.901,12.435,24.786,14.587,24.786,16.907z
			 M23.161,16.907c0-3.874-3.134-7.006-6.983-7.006c-3.851,0-6.982,3.132-6.982,7.006c0,3.851,3.132,6.982,6.982,6.982
			C20.027,23.89,23.161,20.758,23.161,16.907z M14.647,14.587v4.617c0,0.836,0.692,1.529,1.53,1.529c0.788,0,1.458-0.598,1.53-1.363
			c0.048-0.454,0.454-0.788,0.908-0.742c0.431,0.048,0.765,0.455,0.719,0.886c-0.144,1.554-1.507,2.847-3.157,2.847
			c-1.745,0-3.157-1.412-3.157-3.156v-4.617c0-1.746,1.412-3.156,3.157-3.156c1.553,0,3.014,1.196,3.157,2.846
			c0.046,0.455-0.288,0.836-0.719,0.886c-0.454,0.047-0.86-0.264-0.908-0.718c-0.072-0.79-0.742-1.387-1.53-1.387
			C15.34,13.058,14.647,13.751,14.647,14.587z"/>
	</g>
</g>
</svg>
