<?xml version="1.0" encoding="utf-8"?>
<!-- Generator: Adobe Illustrator 16.0.0, SVG Export Plug-In . SVG Version: 6.00 Build 0)  -->
<!DOCTYPE svg PUBLIC "-//W3C//DTD SVG 1.1//EN" "http://www.w3.org/Graphics/SVG/1.1/DTD/svg11.dtd">
<svg version="1.1" id="Capa_1" xmlns="http://www.w3.org/2000/svg" xmlns:xlink="http://www.w3.org/1999/xlink" x="0px" y="0px"
	 width="34px" height="34px" viewBox="0 0 34 34" enable-background="new 0 0 34 34" xml:space="preserve">
<rect x="238.102" fill="#A19892" width="34" height="34"/>
<g>
	<path fill="#FFE6BD" d="M258.557,21.296c-0.008-0.005-0.01-0.01-0.016-0.015l0.002-0.002l-4.086-4.34l4.074-4.33v-0.002
		c0.002-0.002,0.004-0.004,0.008-0.005c0.67-0.669,0.67-1.752,0-2.42c-0.668-0.669-1.752-0.669-2.422,0
		c-0.016,0.018-0.035,0.036-0.053,0.055l-6.707,6.708l0.012,0.004l6.713,6.712c0.018,0.019,0.035,0.038,0.055,0.056
		c0.668,0.668,1.752,0.668,2.42,0C259.225,23.048,259.225,21.965,258.557,21.296z"/>
</g>
<rect x="238.102" fill="#A19892" width="34" height="34"/>
<rect x="235.07" y="-3.568" fill="#A69992" width="41.137" height="41.136"/>
<g>
	<g opacity="0.2">

			<image overflow="visible" enable-background="new    " width="98" height="97" xlink:href="EFC353B5170471BC.png"  transform="matrix(0.9898 0 0 1 206.6016 -31.5005)">
		</image>
	</g>
</g>
<g>
	<g>
		<path fill="#FF5000" d="M258.557,21.296c-0.008-0.005-0.01-0.01-0.016-0.015l0.002-0.002l-4.086-4.34l4.074-4.33v-0.002
			c0.002-0.002,0.004-0.004,0.008-0.005c0.67-0.669,0.67-1.752,0-2.42c-0.668-0.669-1.752-0.669-2.422,0
			c-0.016,0.018-0.035,0.036-0.053,0.055l-6.707,6.708l0.012,0.004l6.713,6.712c0.018,0.019,0.035,0.038,0.055,0.056
			c0.668,0.668,1.752,0.668,2.42,0C259.225,23.048,259.225,21.965,258.557,21.296z"/>
	</g>
</g>
</svg>
