<?xml version="1.0" encoding="utf-8"?>
<!-- Generator: Adobe Illustrator 16.0.0, SVG Export Plug-In . SVG Version: 6.00 Build 0)  -->
<!DOCTYPE svg PUBLIC "-//W3C//DTD SVG 1.1//EN" "http://www.w3.org/Graphics/SVG/1.1/DTD/svg11.dtd">
<svg version="1.1" id="Capa_1" xmlns="http://www.w3.org/2000/svg" xmlns:xlink="http://www.w3.org/1999/xlink" x="0px" y="0px"
	 width="34px" height="34px" viewBox="0 0 34 34" enable-background="new 0 0 34 34" xml:space="preserve">
<rect x="238.102" fill="#A19892" width="34" height="34"/>
<g>
	<path fill="#FFE6BD" d="M251.646,12.704c0.008,0.005,0.01,0.01,0.016,0.014l-0.002,0.002l4.086,4.341l-4.074,4.33v0.002
		c-0.002,0.002-0.004,0.004-0.008,0.006c-0.67,0.668-0.67,1.752,0,2.42c0.668,0.67,1.752,0.67,2.422,0
		c0.016-0.019,0.035-0.035,0.053-0.055l6.707-6.708l-0.012-0.004l-6.713-6.712c-0.018-0.019-0.035-0.038-0.055-0.056
		c-0.668-0.668-1.752-0.668-2.42,0C250.979,10.952,250.979,12.035,251.646,12.704z"/>
</g>
<rect x="238.102" fill="#A19892" width="34" height="34"/>
<rect x="235.07" y="-3.568" fill="#A69993" width="41.137" height="41.136"/>
<g>
	<g opacity="0.2">

			<image overflow="visible" enable-background="new    " width="97" height="97" xlink:href="6F645B68F40B1A7C.png"  transform="matrix(1 0 0 1 206.5 -31.5005)">
		</image>
	</g>
</g>
<g>
	<g>
		<path fill="#FF5000" d="M251.646,12.704c0.008,0.005,0.01,0.01,0.016,0.014l-0.002,0.002l4.086,4.341l-4.074,4.33v0.002
			c-0.002,0.002-0.004,0.004-0.008,0.006c-0.67,0.668-0.67,1.752,0,2.42c0.668,0.67,1.752,0.67,2.422,0
			c0.016-0.019,0.035-0.035,0.053-0.055l6.707-6.708l-0.012-0.004l-6.713-6.712c-0.018-0.019-0.035-0.038-0.055-0.056
			c-0.668-0.668-1.752-0.668-2.42,0C250.979,10.952,250.979,12.035,251.646,12.704z"/>
	</g>
</g>
</svg>
